<svg width="176" height="28" viewBox="0 0 176 28" fill="none" xmlns="http://www.w3.org/2000/svg">
<path d="M49.6298 22.4796C48.3022 25.8787 45.186 27.9499 41.476 27.9499C36.3901 27.9499 32.5859 24.2807 32.5859 18.746C32.5859 13.3278 36.3901 9.62146 41.476 9.62146C45.4539 9.62146 48.3022 11.8512 49.4415 14.6136L46.0622 15.5724C45.2777 14.2098 43.7787 12.9264 41.348 12.9264C38.1811 12.9264 36.0377 15.2453 36.0377 18.7708C36.0377 22.378 38.2946 24.6449 41.3191 24.6449C43.7474 24.6449 45.4684 23.3368 46.2819 21.5704L49.6298 22.4796Z" fill="#165C7D"/>
<path d="M65.5961 19.9327C65.5961 25.1354 62.7937 27.9498 58.3209 27.9498C53.8047 27.9498 51.0312 25.123 51.0312 19.9327V9.97815H54.4951V19.8212C54.4951 23.1237 55.7671 24.6374 58.3571 24.6374C60.9471 24.6374 62.2192 23.1237 62.2192 19.8212V9.97815H65.613L65.5961 19.9327Z" fill="#165C7D"/>
<path d="M70.243 22.2269C70.5109 23.9611 72.0075 24.8703 74.1196 24.8703C75.9854 24.8703 77.1417 24.142 77.1417 22.6803C77.1417 20.5893 74.8316 20.614 72.6954 20.0839C70.3637 19.5289 67.4406 18.4958 67.4406 14.8167C67.4406 11.3879 69.9437 9.61401 73.731 9.61401C77.1223 9.61401 79.5748 11.051 80.4896 14.1528L77.2213 15.0372C76.7796 13.5507 75.6523 12.7158 73.661 12.7158C71.7709 12.7158 70.9358 13.4591 70.9358 14.6978C70.9358 16.4667 72.7485 16.7913 75.1623 17.2967C77.7113 17.7922 80.6151 18.808 80.6151 22.6654C80.6151 26.1686 78.2013 27.935 74.1268 27.935C71.182 27.935 67.8171 26.9985 66.9844 23.1188L70.243 22.2269Z" fill="#165C7D"/>
<path d="M98.4081 22.4796C97.0829 25.8787 93.9642 27.9499 90.2542 27.9499C85.1684 27.9499 81.3594 24.2683 81.3594 18.746C81.3594 13.3278 85.1684 9.62146 90.2542 9.62146C94.2322 9.62146 97.0829 11.8512 98.2198 14.6136L94.8405 15.5724C94.056 14.2098 92.5594 12.9264 90.1287 12.9264C86.957 12.9264 84.8183 15.2453 84.8183 18.7708C84.8183 22.378 87.0801 24.6449 90.1022 24.6449C92.5304 24.6449 94.2515 23.3368 95.0649 21.5704L98.4081 22.4796Z" fill="#165C7D"/>
<path d="M103.399 24.0899L102.105 27.6203H98.4844L105.359 9.97815H109.221L116.105 27.6203H112.436L111.13 24.0899H103.399ZM108.509 17.034C107.915 15.5203 107.331 13.9595 107.302 13.9322H107.232C107.203 13.9595 106.616 15.4955 106.025 17.034L104.577 20.9138H109.928L108.509 17.034Z" fill="#165C7D"/>
<path d="M122.757 13.2261V27.6203H119.339V13.2261H113.859V9.97815H128.229V13.2261H122.757Z" fill="#165C7D"/>
<path d="M129.852 9.97815H133.265V24.3698H141.418V27.6203H129.852V9.97815Z" fill="#165C7D"/>
<path d="M146.966 24.0899L145.668 27.6203H142.047L148.931 9.97815H152.793L159.67 27.6203H156.006L154.705 24.0899H146.966ZM152.069 17.034C151.48 15.5203 150.893 13.9595 150.862 13.9322H150.78C150.758 13.9595 150.169 15.4955 149.573 17.034L148.125 20.9138H153.479L152.069 17.034Z" fill="#165C7D"/>
<path d="M164.31 15.8201H164.233C164.233 15.8473 164.286 17.968 164.286 20.2102V27.6203H160.875V9.97815H164.334L172.563 21.5975H172.635C172.635 21.5703 172.587 19.3678 172.587 17.4378V9.97815H176V27.6203H172.536L164.31 15.8201Z" fill="#165C7D"/>
<path d="M37.2289 3.05363C37.8323 3.13043 38.6772 3.5739 38.6772 4.61196C38.6772 5.65003 37.912 6.3462 36.652 6.3462H34.1875V0.125244H36.4685C37.533 0.125244 38.2499 0.821417 38.2499 1.64642C38.2745 1.96442 38.1839 2.28054 37.9955 2.53425C37.8071 2.78796 37.5341 2.96142 37.2289 3.02142V3.05363ZM36.3479 2.84552C36.9754 2.84552 37.6513 2.49372 37.6513 1.73561C37.6513 1.14597 37.1685 0.6802 36.3648 0.6802H34.7813V2.85791L36.3479 2.84552ZM36.6279 5.79372C37.4389 5.79372 38.0544 5.35769 38.0544 4.60205C38.0544 3.84642 37.3882 3.35093 36.5772 3.35093H34.7813V5.79372H36.6279Z" fill="#165C7D"/>
<path d="M40.7375 4.51782L40.0134 6.33629H39.3906L41.9517 0.125244H42.6275L45.1789 6.33629H44.5537L43.8151 4.51782H40.7375ZM42.9631 2.40948C42.4972 1.26984 42.3017 0.70002 42.2896 0.692587H42.2679C42.2679 0.692587 42.0265 1.32187 41.5437 2.48628L40.9499 3.97277H43.5906L42.9631 2.40948Z" fill="#165C7D"/>
<path d="M50.6873 6.33629L46.9532 1.05678H46.9314C46.9314 1.05678 46.9532 1.73561 46.9532 2.47885V6.33629H46.3594V0.125244H46.9725L50.6873 5.33539H50.7066C50.7066 5.33539 50.6873 4.68133 50.6873 3.96534V0.125244H51.2884V6.33629H50.6873Z" fill="#165C7D"/>
<path d="M58.6788 4.65901C58.3599 5.32145 57.8324 5.85397 57.1819 6.17033C56.5313 6.48668 55.7957 6.56832 55.0943 6.40203C54.3929 6.23574 53.7667 5.83125 53.3172 5.2541C52.8677 4.67695 52.6212 3.96094 52.6177 3.22207C52.61 2.794 52.6871 2.36879 52.8442 1.97218C53.0013 1.57556 53.2352 1.21581 53.5317 0.91469C53.8282 0.613575 54.1812 0.377369 54.5693 0.220375C54.9574 0.0633806 55.3725 -0.0111338 55.7894 0.00134398C56.9577 0.00134398 58.1067 0.568687 58.6208 1.83468L58.0512 1.98333C57.8491 1.55508 57.532 1.19493 57.1374 0.94522C56.7427 0.695506 56.2868 0.566598 55.8232 0.573642C54.3243 0.578597 53.2332 1.65382 53.2332 3.22207C53.2166 3.57457 53.2715 3.92676 53.3944 4.25635C53.5173 4.58595 53.7056 4.88576 53.9472 5.13681C54.1889 5.38787 54.4787 5.58469 54.7983 5.71482C55.1179 5.84495 55.4603 5.90555 55.8039 5.8928C56.2765 5.90319 56.7425 5.77788 57.1493 5.53099C57.5562 5.2841 57.8878 4.92546 58.1067 4.4955L58.6788 4.65901Z" fill="#165C7D"/>
<path d="M62.7968 0.0013307C63.2139 -0.00779076 63.6284 0.0697954 64.0155 0.229419C64.4026 0.389043 64.7542 0.627403 65.0492 0.930152C65.3441 1.2329 65.5764 1.59378 65.7319 1.99106C65.8874 2.38835 65.963 2.81382 65.9541 3.24188C65.9541 4.10001 65.622 4.92299 65.0308 5.52979C64.4396 6.13658 63.6377 6.47747 62.8017 6.47747C61.9656 6.47747 61.1638 6.13658 60.5726 5.52979C59.9814 4.92299 59.6492 4.10001 59.6492 3.24188C59.6397 2.81449 59.7146 2.38954 59.8692 1.99261C60.0239 1.59568 60.2553 1.23499 60.5493 0.932234C60.8434 0.629481 61.1941 0.390934 61.5804 0.230952C61.9666 0.0709705 62.3804 -0.0071373 62.7968 0.0013307ZM62.7968 5.89278C63.1367 5.90152 63.4746 5.83864 63.7898 5.70802C64.105 5.57741 64.3908 5.38184 64.6295 5.13339C64.8681 4.88495 65.0546 4.58891 65.1774 4.26357C65.3002 3.93824 65.3567 3.59051 65.3434 3.24188C65.3581 2.89232 65.3026 2.5434 65.1804 2.21676C65.0583 1.89012 64.872 1.59272 64.6332 1.34301C64.3945 1.09329 64.1083 0.896588 63.7924 0.765093C63.4765 0.633598 63.1376 0.570116 62.7968 0.578584C61.3655 0.578584 60.2575 1.65381 60.2575 3.24188C60.2432 3.59014 60.2987 3.93771 60.4207 4.26303C60.5427 4.58835 60.7285 4.88448 60.9666 5.13304C61.2047 5.3816 61.49 5.5773 61.8048 5.70799C62.1197 5.83868 62.4573 5.90158 62.7968 5.89278Z" fill="#165C7D"/>
<path fill-rule="evenodd" clip-rule="evenodd" d="M9.87437 3.47289C10.6127 2.46885 11.3005 1.42665 11.9349 0.350403C13.0475 0.205828 14.1739 0.214079 15.2843 0.374937C15.9125 1.43212 16.6015 2.47816 17.3296 3.47289C16.0927 3.6164 14.849 3.69085 13.6042 3.69593C12.3579 3.69098 11.1128 3.61653 9.87437 3.47289ZM20.7987 21.4919C19.9168 22.3962 19.0845 23.35 18.3056 24.349C19.4959 24.5159 20.677 24.7459 21.8441 25.0382C22.7395 24.3145 23.5428 23.4782 24.235 22.5491C23.9577 21.3569 23.7401 20.1509 23.583 18.9359C22.6092 19.734 21.6796 20.5873 20.7987 21.4919ZM9.87743 24.7679L9.87437 24.7638V24.7683L9.87743 24.7679ZM9.87743 24.7679C10.626 25.7729 11.3194 26.82 11.9545 27.9042C12.4755 27.9649 12.9994 27.9969 13.5238 28.0001C14.1053 27.9966 14.6861 27.9556 15.2626 27.8774C15.898 26.8051 16.5873 25.7673 17.3275 24.7683C16.091 24.627 14.8482 24.5526 13.6042 24.5452C12.359 24.5524 11.115 24.6267 9.87743 24.7679ZM5.7773 25.4865C7.41987 26.6694 9.2995 27.4604 11.2785 27.8016C10.6482 26.7689 9.97441 25.7719 9.27236 24.8397C8.09745 24.9946 6.93094 25.2105 5.7773 25.4865ZM15.9429 27.7659L15.9528 27.764L15.9516 27.7659H15.9429ZM15.9528 27.764C16.5656 26.7557 17.2276 25.7797 17.9361 24.8397C19.0673 24.9874 20.1904 25.1951 21.3007 25.4619C19.7009 26.6166 17.8765 27.4019 15.9528 27.764ZM2.91905 22.7186L2.92068 22.7207L2.91905 22.7275V22.7186ZM2.92068 22.7207C3.59562 23.5965 4.3708 24.3858 5.22953 25.0716C6.43927 24.7647 7.66396 24.5235 8.89847 24.349C8.12188 23.3487 7.29099 22.3941 6.40976 21.4897C5.52993 20.5862 4.60185 19.7337 3.6298 18.9359C3.45651 20.2091 3.21983 21.4724 2.92068 22.7207ZM2.09981e-06 14.1228C0.00188399 13.5689 0.0352685 13.0156 0.0999853 12.4657C1.17803 11.7983 2.22064 11.0724 3.22337 10.2911C3.36301 11.5604 3.43557 12.8365 3.44073 14.1139C3.43557 15.3905 3.36301 16.6659 3.22337 17.9345C2.2188 17.1519 1.174 16.4252 0.0934646 15.7577C0.0309138 15.2151 -0.000294897 14.6692 2.09981e-06 14.1228ZM2.51257 22.1677C2.78574 20.9739 2.99831 19.7664 3.14942 18.5501C2.19794 17.7939 1.20834 17.0896 0.184704 16.4401C0.529008 18.5053 1.32489 20.4635 2.51257 22.1677ZM5.99106 8.9623C4.99673 10.4899 4.46622 12.2858 4.46665 14.1228C4.4701 16.5842 5.42453 18.9439 7.1207 20.6844C8.81687 22.4249 11.1164 23.4042 13.5151 23.4078C15.3054 23.4082 17.0555 22.8638 18.5442 21.8435C20.0329 20.8232 21.1933 19.3728 21.8786 17.6757C22.5639 15.9786 22.7433 14.111 22.3942 12.3093C22.045 10.5076 21.183 8.85253 19.9171 7.55356C18.6512 6.25459 17.0383 5.37003 15.2825 5.01175C13.5266 4.65347 11.7066 4.83758 10.0528 5.54078C8.39889 6.24398 6.98539 7.43469 5.99106 8.9623ZM9.49407 3.95465C10.8551 4.12332 12.2246 4.20971 13.5956 4.21337H13.6042C14.9752 4.20971 16.3447 4.12332 17.7057 3.95465C18.5517 5.0618 19.4619 6.11569 20.4314 7.11059C21.3997 8.10298 22.4253 9.03472 23.5026 9.90076C23.1664 12.6944 23.1664 15.52 23.5026 18.3136C21.3404 20.0512 19.3917 22.0515 17.6992 24.2709C14.9772 23.9289 12.2247 23.9289 9.50276 24.2709C8.66005 23.1622 7.75198 22.1075 6.78366 21.1127C5.81166 20.1199 4.78477 19.1853 3.70809 18.3136C3.86794 16.9197 3.95066 15.5175 3.95587 14.1139C3.95407 12.7065 3.87133 11.3004 3.70809 9.90299C4.78562 9.03473 5.81258 8.10233 6.78366 7.11059C7.74721 6.1146 8.65228 5.06076 9.49407 3.95465ZM0.191269 11.7832C1.21297 11.134 2.20042 10.4297 3.14947 9.67327C2.99937 8.46352 2.78752 7.26268 2.51479 6.07571C1.33116 7.7743 0.536876 9.72537 0.191269 11.7832ZM20.7986 6.73367C19.9172 5.82885 19.0856 4.87426 18.3077 3.87436C19.4901 3.71025 20.6633 3.48244 21.8224 3.19187C22.7274 3.91695 23.5382 4.75794 24.235 5.69432C23.9569 6.87882 23.7393 8.07741 23.5829 9.28519C22.6082 8.48984 21.6786 7.63795 20.7986 6.73367ZM24.059 9.67327C24.911 10.3424 25.8348 11.0115 26.8151 11.6471C26.4667 9.71929 25.726 7.88849 24.6415 6.27421C24.3853 7.39567 24.1872 8.53028 24.0481 9.67327H24.059ZM24.6524 21.9692C24.3963 20.841 24.1982 19.6997 24.059 18.5501H24.0677C24.9284 17.8676 25.85 17.2052 26.8259 16.574C26.4829 18.5103 25.7419 20.3495 24.6524 21.9692ZM23.7699 14.1139C23.7771 15.3905 23.8497 16.6657 23.9873 17.9345C24.9309 17.193 25.9102 16.5007 26.9216 15.8603C26.9961 15.2828 27.0339 14.7009 27.0346 14.1184C27.0331 13.5218 26.9954 12.9258 26.9216 12.3341C25.9057 11.7051 24.9233 11.0209 23.9786 10.2844C23.8409 11.5539 23.7683 12.8299 23.7612 14.1072L23.7699 14.1139ZM21.2703 2.77479C20.1597 3.03351 19.0403 3.23871 17.9339 3.38591V3.38368C17.2344 2.45187 16.5815 1.48413 15.9778 0.484224C17.8818 0.848912 19.6869 1.63015 21.2703 2.77479ZM2.9234 5.52036C3.22115 6.76215 3.45693 8.01873 3.62981 9.28519C4.60188 8.48827 5.52997 7.63644 6.40977 6.73367C7.29119 5.82945 8.12209 4.87482 8.89849 3.87436C7.66931 3.70036 6.45031 3.45763 5.24693 3.14726C4.3838 3.84135 3.60385 4.63793 2.9234 5.52036ZM9.27887 3.38591C8.10967 3.23216 6.94892 3.01702 5.80119 2.74134C7.43407 1.57077 9.29953 0.786195 11.2633 0.444081C10.6518 1.4592 9.98942 2.44113 9.27887 3.38591Z" fill="#D6B171"/>
</svg>
